<svg xmlns="http://www.w3.org/2000/svg" viewBox="0 0 257.78 410.85"><defs><style>.cls-1,.cls-2{fill:#de9901;}.cls-1{fill-rule:evenodd;}</style></defs><title>Recurso 18</title><g id="Capa_2" data-name="Capa 2"><g id="Layer_1" data-name="Layer 1"><path class="cls-1" d="M154,0c13.91,0,34,12.73,34,24.19C188,27,185,28.4,182.39,31s-7.83,10-7.83,10.87,3.43,3.33,5.19,3.33a8.41,8.41,0,0,1,4.6,1.28c-.19-.89-.49-2.65.59-2.65s1.76,1.08,3,2.06,2.93,1.66,3.91,3.52,1.67,2.65.59,2.65-3.72.19-3.72-1A4.4,4.4,0,0,1,189.1,50c-1.18,0-2.06-.62-3.37-1.87-1.13,1.44-3.94,2.31-6.31,2.31s-9.75-.31-14.44-7.06S156,32.3,151.73,31.92a25.68,25.68,0,0,1,9,10c2.12,3.88,7.33,6.82,9.56,7.06a23.47,23.47,0,0,0-.44,4.07c.07,1.5-.43,4.62-3.56,8.12s-7.81,9.13-7.81,10.31-1.81,2.07-2.81,2.07-5.19-1.32-6.25-2.5-3.13-3.57-.94-2,3.5,2.18,4.37,2.18a3,3,0,0,0,2.88-2.87c0-2,.44-2.88.87-3.38a2.53,2.53,0,0,0,1-1.93c0-1.07.57-1.38,1.19-1.75a1.83,1.83,0,0,0,.69-1.69,1.1,1.1,0,0,1,1.19-1.13c.81,0,2.62,1,2.81-2.31s1-7.12-1.06-7.25-6.5-.12-7.38-1.37-1.19-2-1.81-2.25a.8.8,0,0,0,0-1.44,7.68,7.68,0,0,0-3.69-1.5c-2,0-1.19.62-1.62,1.69a7,7,0,0,0-.75,3.31c0,1.62.18,3.62,1.25,4.62a4.28,4.28,0,0,1-3.13-.68c-1.31-.88-2.75-1.63-2.62-3.19a8.16,8.16,0,0,0-1.88-4.88c-.69-.5-1.06-1.62,0-1.25l1.06.38s0-2.77-2.21-2.77-3.5,1.54-3.5,4.08S138,47.84,138,49.84a1.54,1.54,0,0,0,1.5,1.75c.66,0,1.16.42.58,1.12s-.62,1.17-1.21,1.17-.83-.54-1.33-1.46-3.29-3.91-5.46-3.91c-1.64,0-1.83.91-3.21.91s-3.16-1-3.16-1.91.62-1,1.5-1a1.64,1.64,0,0,0,1.75-1.63c0-1.08-1.5-4.08-1.5-7.25s1.45-4.79,3.54-4.79c1,0,1.75.37,2.79.37a2.15,2.15,0,0,0,2-2c-3.58,0-11.42-.83-11.42-5.83,0-2.75,4.92-4.58,8.38-4.58S146.1,24,151.35,28.17c0,0,1.29,1,1.63.63s-.25-1.34-1.42-2.42S144,20.63,144,18.51s2.21-5.3,2.21-13.75C146.19,3.13,146.08,0,154,0Z"/><path class="cls-1" d="M151.26,56.32a1.86,1.86,0,0,0-2,1.62c0,.93.39,1.15,1,.2a2.35,2.35,0,0,1,1.51-1.07S153.45,56.32,151.26,56.32Z"/><path class="cls-1" d="M142.31,63.78c-.7,0-1.15.45-1.76,1s-2.44,1.57-.9,1.46,3-.25,3.67-.34,1.07,0,.42-.86S142.79,63.78,142.31,63.78Z"/><path class="cls-1" d="M190.92,58.14c-.27-.31-1.19,2-.79,3.06S191.35,58.64,190.92,58.14Z"/><path class="cls-1" d="M157,76.18c-.87-.85-1.32-1.3-1.86-1.3a3.05,3.05,0,0,0-2.1.71c-1.62-1.81-4.71-4.82-6.55-4.82-1.3,0-1.17,1.45-1.17,3.83s1.28,8,2.64,8a7.85,7.85,0,0,0,4.19-1.71c1.26,1.6,1.86,2,3.05,2a2.21,2.21,0,0,0,2.25-1.1c1.43.8,2.94,2.12,3.85,2.21s1-.35.93-.65-1.56-3.61-1.56-5,2.27-4.22,2.27-4.92-.3-.64-1-.64a9.69,9.69,0,0,0-4.69,2.25A6.13,6.13,0,0,1,157,76.18Z"/><path class="cls-1" d="M163.27,99.05c-1.21,0-1.58.46-1.58,1s.79,1.54.79,2.41,2.71.34,2.71-1.69C165.19,99.84,165,99.05,163.27,99.05Z"/><path class="cls-1" d="M165.56,106.46c-1.12,0-1.5.46-1.5,1.25s.63,1.05.58,2.21.63,1,1.3.34a3.33,3.33,0,0,0,1-2.59C167,106.42,165.56,106.46,165.56,106.46Z"/><path class="cls-1" d="M180.06,161.43c-.68-.79,4.89-2.71,6.44-2.06S181.6,163.23,180.06,161.43Z"/><path class="cls-1" d="M200.41,152c-1.8,0-3.35,1.29-4,1.29s-.26-.52,0-1,2.19-4.57,2.19-4.57a7.26,7.26,0,0,1-1.16-3.67,5.13,5.13,0,0,1,1.22-3.29s.52,1.8,1.74,1.8.94-1.54.94-1.54.79-.59.79-1.21-.58-.92-1.95-.29c.2-.59,1-1.42,3.41-1.42s6.29,1.25,6.29,6a5.57,5.57,0,0,1-5.62,6l-1,2a11.51,11.51,0,0,1,1.62-.12c.88,0,6.46.5,6.46,2.25a2.85,2.85,0,0,1-1.79,2.45S205,152,200.41,152Z"/><path class="cls-1" d="M208.77,157.92s0,.71-1.29.71-4.34-1.67-5.09-1.92-2.91-.58-1.95,1,.25,2.17-.92,2.67-2.29,1.46-1.88,2.67-.7,1.83-1.25,2.37-.79.75-.75,1.29.3,3.17-7.37,3.17c-2.67,0-3.35-1-4.9-1s-2.06.42-2.06,1.37.42,1.55,1.75,1.55c0,.41,0,.54-.67.58s-.75.87.46,1.37a19.65,19.65,0,0,1,2.21,1.09l-72,142.83s-.5.54.29,1a1.32,1.32,0,0,0,1.42,0l77-144.83a13.16,13.16,0,0,0,5.92-1.34c2.75-1.45,4-2.83,4-3.66s.16-1.25,1-1.59a6,6,0,0,0,2.66-2.7c.29-1,.75-1.63,1.59-1.63s3.29-.64,3.29-2.28S209.44,157,208.77,157.92Z"/><path class="cls-1" d="M186.54,292.07c0-7.49-1.28-7.67-1.71-8.52s-1-.43-1,.3a16.54,16.54,0,0,1,.43,3.73c0,7-5.3,12.1-5.3,13.87,0,2.5,2.43.49,2.43,2.8s-2,7.86-11.2,14.58c0,7.1-3.1,6.67-3.1,8.68a3.24,3.24,0,0,0,1.09,2.74s4.51-2.8,7-4.38a16.78,16.78,0,0,0,7.19-9.62,44.66,44.66,0,0,1,5.78-11.94,2.33,2.33,0,0,0,.61-2.19c-.24-1-1.15-3.65-1.82-3.71s-2.07.6-1.28-1.34A10.86,10.86,0,0,0,186.54,292.07Z"/><path class="cls-1" d="M255.58,372c-.85.12-.85.73-1.76.3a5.92,5.92,0,0,0-2.56-.67c-.85,0-3.77.67-4.26,3.47s-.55,3.84-1,4.81a12.35,12.35,0,0,1-2.61-.91s-3.47,3.16-7.19,3.16-3.9-1.21-3.9-1.21,6.21.24,10.05-4.2a18.51,18.51,0,0,1-6.27,1.58c-2.8,0-15.71-2.13-17.35-3.78.18-.61-.06-2.55-1.77-2.61s-2.8-1.34-4.44-4.57a237.22,237.22,0,0,1-11.51-27c-3.9-11.45-9.19-29-9.74-32.15-1,.67-1.1,3.23-.86,5.72-3.83,4.9-2.5,12.89-11.69,17.9-1.33.73-1.45,1.1-.69,1.34s2.28,1.65,3.5,6.94,9.85,22.53,15.7,28.92c1.34,1.46,2.62,4.08-.48,1s-8.28-7.76-13.15-16.27-6-13.75-6.4-15.58-1.15-4-2.92-4a6.21,6.21,0,0,0-3.53,1.7s.67,3.41,4.93,11.08a178.82,178.82,0,0,0,16.74,23.69c3.6,4,4.08,5.42,4.08,6.21s.43,2.92,1.65,3,1.52.79,1.52,1.34-1,2-1,3.11c0,2,2,2.74,2.62,5.11a24,24,0,0,0,6.46,12.12c4.81,4.87,5.66,5.66,5.66,5.66a38.71,38.71,0,0,0,11.51-5.78,28,28,0,0,0-.67-4c5.23-2.38,21-2.53,28.67-14.25,4.27-6.51,4.94-8.52,4.94-9.13S256.44,371.83,255.58,372Zm-49,21.67c-3,0-3.71-5.23-3.71-6s.73-1.27,2-1.27,1.7,1.09,1.7,3.71C206.63,391.69,207.85,393.63,206.63,393.63Zm19.85-1c-1.25.78-6.06,1.22-8.53,2.56s-4.72,4.38-4.72,1.5c0-1.59,2-3.34,5.31-3.65s6.06-.16,7.22-.88S227.73,391.86,226.48,392.64Z"/><path class="cls-1" d="M66.24,322.59c-1.92.24-6.54.36-9.36.36a50.14,50.14,0,0,1-11.64-2.22c-1.92-.78-2.22-1-3.24,1s-10.68,18-15.84,36.42c-.78-1.8.06-9.54,2.76-17.1s7.44-17,9.24-19.5,2.16-3.24,1.05-4a5.39,5.39,0,0,1-2.55-3.6c-6.3,8.7-11,20.46-13.2,31.68s-3.42,14.28-6.3,16.44c2.1.06,3.54.78,3.54,1.44s-1.92,1.68-2.88,2.82-1.5,2.28-2.58,2.28a2,2,0,0,1-1.8-2,13.15,13.15,0,0,0-1.32,6.78c-1.68,3.66-1.2,8,2.16,14,1.44.12,4.14,0,4.14,0s2.16,6.42,3.87,10.26,3.33,7.38,8.37,9.54a53.88,53.88,0,0,0,16.86,3.66c3.78,0,6.06-.84,6.06-2.22s-1.08-1.32-1.08-1.86.78-.72.78-2.1-1.5-3.42-4.2-5.16-6.24-3.24-9.12-11.88-2.28-13.5-2.28-13.5,2.28-.48,2.28-2a2.7,2.7,0,0,0-.9-2.16s-.42,1.32-1.56,1.32-.9-1.32-1.8-1.38-1.8-.54-1.2-1.44,2.7-.78,4.08.48c.72-9.54,9.9-22.86,17.1-32.1s10-12.06,10.56-12.72S68.16,322.35,66.24,322.59Zm-41.52,69.9c-1.14,0-1.8-4.2-3.9-7.14s-2.4-3.78-2.4-5.76.12-2.7,1-2.7c.46,0,.66.72.66,2.1s.72,3.18,3.18,5.7,2.88,4.56,2.88,5.28S25.86,392.49,24.72,392.49Zm11.92,7.44a8.71,8.71,0,0,0,3.44,2.76c1.44.6.66.84,0,.84s-2-.72-4-1.62-3.72-1.56-3.72-2.28.9-1.42,2.16-1.42S36.18,399.15,36.64,399.93ZM35,396c0,.72-1.62,1-2.4,1a5.39,5.39,0,0,0-2.22.72c-.6.3-1.38,1-1.38,0s2.46-2.46,3.6-2.46C34,395.25,35,395.31,35,396Z"/><path class="cls-1" d="M45.88,303.35c-2,2.49-3,3.48-3,4.46a7.08,7.08,0,0,0,1.34,3.08c.43.64.79,0,.91-.86s.47-1,.79-1,1.38-.08,1.38,1.42-.83,1.74-.83,2.45,5.65,4.07,13,4.07c5.09,0,9.16-1.43,10-1.43s1-.19,1,.75S69,318.83,69,320.05s2.29-1,3.94-2.72,5.22-4.59,5.22-5.45-.67-.83-.67-2,1.89-3.32,4.38-4.78,5.8-2.92,5.8-5.92,2.69-5,4.7-5.93,3.36-3.31,4.5-5.44,4.15-5.57,8-9.72,6.16-7.38,12.24-18.91,17.13-25.78,20.61-28.19,4-3.83-1.11-1-10.85,6.32-18.59,20-10.19,22.19-15.24,27-15,8.64-15,11.92c0,.95.32.71.32,1.78s-.79,3.35-4.5,4.5-6.52,1.58-6.52,2.45,1.58,1.77,2.76,1.89,1.82.48,1.82,1.11-1.5,5.17-17.73,5.17c-4.66,0-5.72-.43-7.14-.43s-1.62.35-1.62.75.59,1.14,2.88,1.65,6.71,1.39,6.71,1.94-.91.95-5.09.95S47.18,310.07,45.88,303.35Z"/><path class="cls-1" d="M65.76,218.09s-5.87,5.34-5.87,10.33S63.34,238,64.71,238s.89-1.16,2.2-3.36,7.7-12.21,11.89-14.83,8.44-6,5.93-5.29S68.69,217.41,65.76,218.09Z"/><path class="cls-1" d="M219.57,88.91c-4.56-5.66-5.51-8.85-5.35-10.69s-2.41-2.83-3.35-2.41-1.52,0-1.52-1.1-.63-1-1.47-1.16-1.36.11-1.62-2.3-1.63-2.09-3.78-7.47a24.25,24.25,0,0,1-1.78-5.67c-.31-1.35-4.56-1.42-4.56-1.42l2.25-.37c-.15-1.84-1.67-3.62-4.5-3.62s-3.41.47-3.86,1.16c1.91-.42,2.23,1.2,2.23,3,1.1,0,1.21.89,1.16,1.92s.21,1.28.94,1,.89,2.28,0,3.17-.31,1.31-.78,2.41-1.26,1.31-1.47.87-.68-.29-1.12.44-1,.63-1.55.63-.84-.68-.84-1.36c0-1.63-.84-4.14-.84-5.24a27.81,27.81,0,0,1,.52-4.35c-1.31,1.46-1.67,2.93-1.67,6.65-1.79-2.93-3.2-3.22-3.83-3.22s-1.26.08-1.26,1,1.21,1.21,2.62,5,2.94,5,7.08,7.29,5.39,3.19,6.39,4.61S199.91,79,201.43,79s2,.52,1.37,1.36-1.84,1.52-4.2,1.52-2.88-.94-3.82-2.1-1.52-.31-2.15-.1-.63.73.05,1.78.35,3.51.35,4.82,0,2,.86,2,1.2-1.41,1.88-1.41a2.57,2.57,0,0,1,2.1,2.67c0,1.78-3,.21-3,1.84s3.1,1.78,4.46,2.77,1.78.89,3.77.89c5,.11.79,1.84-.26,2.26.94,3.77,7.13,9.33,11.11,11.63-2.94-.21-6.29-2.36-8.91-4.3s-2.83-6.49-4.93-6.49c-1.46,0-1.46,3.56-1.62,6.18a8.94,8.94,0,0,1-2.41-4.61c0-.84,0-2,1.52-4.14A14,14,0,0,1,193,91.43c-2.24-2.74-6.27-2.36-7.68-2.36s-3.62-.68-6.29-4.14-7.34-4-9.59-4a38.26,38.26,0,0,0-6,.47c.15,4.19,4.61,5.76,4.61,8.85,0,2-1.07,3.2-1.07,6.35s3.64,7.12,3.27,10.27c-2.32,19.88-7.33,29.24-8.56,29.19,0-25.37-19.58-58.12-35.41-73.95-2.62-2.62-3-3.72-3-.1a8.18,8.18,0,0,1-3.57,6.76c-1.36.94-.89.73.58,1a14.83,14.83,0,0,1,5.29,2c2.83,1.52-2.88.52-6.55.47s-3,.47-.68,1.35a44.7,44.7,0,0,1,8.28,4.73c1.26,1,1.68,2-2.78.83A67.5,67.5,0,0,0,109.57,77a17.75,17.75,0,0,0-7.71,1.62c-2.67,1,2.26,1.26,5.45,4.09s.89,2.3-.36,1.68-3.88-2.68-6.45-2.52,3.93,1.68,8.18,7.65c3.44,4.85,5.34,11.48,4.92,14.15-4.5-9.28-9.59-13.89-10.32-13.89s-.84.79-.84,2c0,6.5,6.71,9.14,12.31,17.08,3.92,5.54,11.06,19.55,12,22.12s3.35,1.88,4.61,3.77,2.67,2.51,6.28,3.72,4.88,1.83,4.88,3.2-2.25-.16-6.66-.16-9.22,1.89-14.51,1.89-6.34-2.68-9.07-4.51-.42-1.73,1-.84,6.87,1.68,9.17,1.84,6.18-.95,8.65-.69.1-2-5.87-3.35-8.7-3.2-10.64-4.72.16-1.41,1.21-.89a10.16,10.16,0,0,0,4,.87c1.28,0,1.55-.08,1.55-.87,0-2.2-8.17-8.85-18.92-19S91.17,94.89,91.17,91.48a15.36,15.36,0,0,1,2.2-8c1-1.52,1.26-3.93-1.36-1.25a15.86,15.86,0,0,0-5.08,11.53c0,5.29,2.51,16.24,5.71,24.13s10,18.42,16.19,27.43,22.07,11.85,33,17.4c-3.31-.73-6.45-1.31-12.84-2.2s-14-3.14-18.55-7.91c.1,1.46-1.63,12.78-9.54,20.49,0,0,.52-2.1-1.57-2.1s-8.76,8.28-21.49,8.28c-6.87,0-8.12-5.19-8.12-1.57,0,4.47,3.72,6.86,12.68,8.65-43,7.18-52.62,36.1-52.62,53.19a20.78,20.78,0,0,0,4.72,13.78c1.89,2.25,1.05-1,1.05-2.57,0-14,18.39-27.14,20.91-28.87s3.93-2.78,1.41-2.26S35,224.23,33.53,236.12c-.12-16.12,16.82-16,44.59-23.63s31.87-16.77,39.57-25.58c0,0-16.19,7.13-26.57,8.55C116,182.83,131.47,181,136,181a39.35,39.35,0,0,1,8.54,1,22.23,22.23,0,0,0,6.24-8c1,3.15,4.56,9.75,6.34,9.75s2.94-10,3.15-11.32-1.42-1.68-3.78-2.62-1.67-.94-.26-.89,2.36-1.31,3.3-1.26,1.15,1.21,1.63,2.52,4.61,2.72,6,3.35.53-.42-.42-1.42-.73-2.56.79-2.3c4.31.74,3.67,3.56,3.35,4.14s.16,1.15,1.37,1.31,3.25.68,4.08.68,2.15-.52,2.15-2.57-3.4-.52-3.4-6.29c0-7.86,9.9-11.37,12.05-12.89s-.11-.84-7.18-1.1-23.69-5.71-26.88-5.71-7,1.1-10.75.94-6.86-.63-8.38-2.36c4.09-.47,4.14-1.62,10.9-1.62s12.73,1.83,19.28,3.88c1.42-8,5.56-20.39,7.24-38.21,13.94,4.09,32.59,6.08,42.08,6.08s17.76-1.73,17.76-7.12S224.13,94.57,219.57,88.91Zm-82,10.75c-3-2.78-11.47-8.62-11.47-9.19s1.76-1.36,5.62-3.19.42,2.3-1.34,3.84c13.85,11,19.62,20.63,18.66,21.37A72.44,72.44,0,0,0,137.6,99.66Zm10.25,22.92c-1.48,0-2-1.46-2-2.68a1.93,1.93,0,0,1,2-2c1.22,0,1.84,1.41,1.84,2.38S149.46,122.58,147.85,122.58Zm4.19,13c-1.56,0-1.93-1.69-1.93-2.38a1.89,1.89,0,0,1,1.76-1.86c1.78,0,2,1.56,2,2.43S153.6,135.61,152,135.61Z"/><path class="cls-2" d="M0,403.53H7.23v.83H4v6.4H3.2v-6.4H0Zm16,0-3.19,4.3-3.2-4.3H8.79v7.23h.82v-5.32l3.2,4.13L16,405.44v5.32h.83v-7.23Z"/></g></g></svg>